<?xml version="1.0" encoding="utf-8"?>
<!-- Generator: Adobe Illustrator 27.0.0, SVG Export Plug-In . SVG Version: 6.00 Build 0)  -->
<svg version="1.1" id="Layer_1" xmlns="http://www.w3.org/2000/svg" xmlns:xlink="http://www.w3.org/1999/xlink" x="0px" y="0px"
	 viewBox="0 0 531.8 152.1" style="enable-background:new 0 0 531.8 152.1;" xml:space="preserve">
<style type="text/css">
	.st0{fill:#FFFFFF;}
	.st1{fill:#E86225;}
</style>
<path class="st0" d="M81.4,45.3v88H59.5v-24.7H21.3C13,100.2,8.3,95.5,0,87.2v-42h46.6c4.9,4.9,9,9,13,13l14.7-13H81.4z M59.5,65.1
	l-2.8-2.8H21.8v26.4l2.8,2.8h34.9V65.1z"/>
<path class="st0" d="M175,45.3v63.3h-7.1l-14.7-13c-3.9,3.9-8,8-13,13H93.6V45.3h21.8v46.2h34.9l2.8-2.8V45.3H175z"/>
<rect x="187.2" y="20.6" class="st1" width="21.8" height="17.1"/>
<rect x="187.2" y="45.3" class="st0" width="21.8" height="63.3"/>
<path class="st0" d="M300.4,64.1l-49.8,30.3h49.8v14.2h-74.5c-2.7-2.7-4.2-4.2-6.9-6.9V91.1l52.8-31.8h-49.9V45.3h71.7
	c2.7,2.7,4.1,4.1,6.8,6.8V64.1z"/>
<path class="st1" d="M439.8,45.3v63.3H418V62.3h-29.1c-1.1,1.1-1.7,1.7-2.8,2.8v43.4h-21.8V62.3h-29.1l-2.8,2.8v43.4h-21.8V45.3h7
	l14.7,13c3.9-3.9,8-8,13.1-13h40.6v13l13.1-13H439.8z"/>
<path class="st1" d="M472.5,85.2v3.6l2.8,2.7h56.5v17.1h-59.7c-8.3-8.3-13-13-21.2-21.3V45.5h72.2l8.7,12.7v20.9h-53.1L472.5,85.2z
	 M472.5,62.6v15.9l7.5-7.5h30.1v-8.4H472.5z"/>
</svg>
