<?xml version="1.0" encoding="utf-8"?>
<!-- Generator: Adobe Illustrator 27.0.0, SVG Export Plug-In . SVG Version: 6.00 Build 0)  -->
<svg version="1.1" id="Layer_1" xmlns="http://www.w3.org/2000/svg" xmlns:xlink="http://www.w3.org/1999/xlink" x="0px" y="0px"
	 viewBox="0 0 531.8 152.1" style="enable-background:new 0 0 531.8 152.1;" xml:space="preserve">
<style type="text/css">
	.st0{fill:#414A9D;}
	.st1{fill:#E86225;}
	.st2{fill:#F6B06F;}
	.st3{fill:#1B1E49;}
</style>
<g>
	<path class="st0" d="M18.4,110.3C13.7,105.5,10,99.8,7.4,93c-2.6-6.8-3.9-14.2-3.9-22.3c0-8.3,1.3-15.9,3.9-22.6
		c2.6-6.8,6.4-12.5,11.4-17.1c4.7-4.4,10.2-7.8,16.6-10.1s13.3-3.5,20.7-3.5s14.3,1.2,20.7,3.5s12,5.7,16.7,10.1
		c5,4.7,8.8,10.4,11.4,17.1c2.6,6.8,3.9,14.3,3.9,22.6c0,17.4-4.6,30.8-13.7,40.2s-22.2,13.8-39,13.4c-7.5,0-14.5-1.2-21-3.6
		C28.6,118.3,23.1,114.9,18.4,110.3z M56,100.8c7.3,0,12.9-2.6,16.9-7.8c3.9-5.2,5.9-12.6,5.9-22.3c0-9.5-2-16.9-6-22.1
		c-4-5.2-9.5-7.8-16.6-7.8c-7.3,0-12.9,2.6-16.9,7.7c-3.9,5.2-5.9,12.6-5.9,22.2c0,9.8,2,17.2,5.9,22.4
		C43.2,98.2,48.8,100.8,56,100.8z M107.4,131.6l-0.3,2.3c-0.8,4.9-2.6,8.6-5.5,11.2c-2.9,2.6-6.5,3.9-11,3.9
		c-11,0-21.8-7.1-32.4-21.3l3,0.2c8.5,0.6,17.5-1.6,26.8-6.5l1-0.5l12.3,6.7C105.4,129.9,107.4,131.3,107.4,131.6z"/>
	<path class="st0" d="M122.7,41.7c1.9-1.3,4.1-1.9,6.7-1.7l3.2,0.2c5.7,0,9.7,1,12.1,3c2.4,2,3.6,5.4,3.6,10.3v35.8
		c0,8.4,4.3,12.6,13,12.6c3.9,0,7.2-0.7,10-2V49.2c0-3.8,0.9-6.3,2.8-7.6c1.9-1.3,4.1-1.9,6.7-1.7l3.2,0.2c5.7,0,9.7,1,12.1,3
		c2.4,2,3.6,5.4,3.6,10.3V104c0,4.8-1.7,8.5-5.2,11.3s-8.7,5-15.6,6.7c-5.4,1.3-11.3,2-17.6,2c-13.2,0-23.3-2.9-30.4-8.7
		c-7.1-5.8-10.6-14.5-10.6-26V49.2C119.9,45.5,120.9,43,122.7,41.7z"/>
	<path class="st0" d="M219.9,3c4.5,0,8.3,1.4,11.1,4.2c2.9,2.8,4.3,6.4,4.3,10.7c0,4.3-1.4,7.9-4.3,10.7c-2.9,2.8-6.6,4.2-11.1,4.2
		c-4.5,0-8.3-1.4-11.1-4.2c-2.9-2.8-4.3-6.4-4.3-10.7c0-4.3,1.4-7.9,4.3-10.7C211.6,4.4,215.3,3,219.9,3z M231.5,121
		c-1.7,1.2-3.9,1.8-6.4,1.7h-3.7c-5.7,0-9.7-1-12.1-3c-2.4-2-3.6-5.4-3.6-10.3V49.2c0-3.8,0.8-6.3,2.5-7.5c1.7-1.2,3.8-1.8,6.5-1.8
		l3.7,0.2c5.7,0,9.7,1,12.1,3c2.4,2,3.6,5.4,3.6,10.3v60.1C234,117.2,233.2,119.7,231.5,121z"/>
	<path class="st0" d="M243.3,117.9c-1.9-2.3-2.9-5.4-2.9-9.2c0-4,1.8-8.2,5.5-12.6l28.6-33.6h-23.6c-5.2,0-8.2-1.7-9-5.2
		c-0.6-2.4-0.8-4.3-0.8-5.7c0-7.3,3.2-11,9.5-11h46.4c4,0,7,1.1,8.9,3.4c1.9,2.3,2.9,5.4,2.9,9.2c0,3.9-1.8,8.1-5.5,12.6l-27.9,33.6
		h25.6c5.2,0,8.2,1.7,9,5.2c0.6,2.4,0.8,4.3,0.8,5.7c0,7.3-3.2,11-9.5,11h-49.1C248.2,121.3,245.2,120.1,243.3,117.9z"/>
</g>
<path class="st1" d="M391.5,39.8c4.2-1.2,8.8-1.8,14.1-1.8c4.4,0,8.7,0.6,12.7,1.7c4,1.2,7.6,2.9,10.6,5.1
	c6.9,5.2,10.3,13.2,10.3,24v44.8c0,3.8-0.9,6.3-2.8,7.6c-1.9,1.3-4,1.9-6.5,1.7l-3.3-0.2c-5.7,0-9.7-1-12.1-3
	c-2.4-2-3.6-5.4-3.6-10.3V69.5c0-6.3-3.5-9.5-10.5-9.5c-1.2,0-2.7,0.4-4.5,1.1c-1.8,0.7-3.3,1.5-4.5,2.2c0.1,0.1,0.2,0.5,0.2,1.2
	v48.9c0,3.8-0.9,6.3-2.8,7.6c-1.9,1.3-4,1.9-6.5,1.7l-3.3-0.2c-5.7,0-9.7-1-12.1-3c-2.4-2-3.6-5.4-3.6-10.3V69.5c0-3-0.9-5.3-2.7-7
	c-1.8-1.7-4.4-2.5-7.7-2.5c-3.1,0-6,0.9-8.8,2.7v50.7c0,3.8-0.9,6.3-2.8,7.6c-1.9,1.3-4,1.9-6.5,1.7l-3.3-0.2c-5.7,0-9.7-1-12.1-3
	c-2.4-2-3.6-5.4-3.6-10.3V59.1c0-2.7,0.6-4.9,1.7-6.7c1.1-1.8,2.9-3.6,5.5-5.4c3.8-2.7,8.5-4.8,14.2-6.5c5.7-1.7,11.5-2.5,17.4-2.5
	c10.1,0,18.4,2.6,24.8,7.7C383.3,42.9,387.3,41,391.5,39.8z"/>
<path class="st1" d="M455.5,111.1c-7.5-7.6-11.2-17.4-11.2-29.5c0-3,0.1-4.8,0.2-5.3c1-12.4,5.2-21.9,12.6-28.4
	c7.4-6.5,16.8-9.8,28.1-9.8c6.4,0,12.4,1.1,18,3.3c5.5,2.2,10.2,5.3,14,9.3c5.9,6.5,8.8,14.2,8.8,23c0,1.8-0.1,2.8-0.2,3.2
	c-0.3,3.7-1.6,6.5-3.8,8.5c-2.2,2-5.3,3-9.1,3h-42.9c1,4.1,4,7.7,8.9,10.8c4.9,3.1,10.2,4.7,15.9,4.7c4.7,0,8.9-0.6,12.6-1.7
	c1.2-0.4,2.8-0.7,4.8-0.7c2.6,0,4.4,0.9,5.5,2.7c1.1,1.8,1.7,3.9,1.7,6.3c0,4.3-1.8,7.7-5.3,10c-3.5,2.3-8.5,3.7-14.8,4l-6.7,0.3
	l-6-0.3C473.4,123.1,463,118.6,455.5,111.1z M470.4,70.7l28.8,0.3c0.1-3.3-1.2-6.2-3.8-8.7c-2.7-2.5-6.1-3.7-10.3-3.7
	c-3.4,0-6.5,1.1-9.2,3.2C473.3,63.8,471.4,66.8,470.4,70.7z"/>
</svg>
